<?xml version="1.0" encoding="utf-8"?>
<!-- Generator: Adobe Illustrator 19.0.0, SVG Export Plug-In . SVG Version: 6.00 Build 0)  -->
<svg version="1.1" id="Capa_1" xmlns="http://www.w3.org/2000/svg" xmlns:xlink="http://www.w3.org/1999/xlink" x="0px" y="0px"
	 viewBox="-243 245 512 512" style="enable-background:new -243 245 512 512;" xml:space="preserve">
<style type="text/css">
	.st0{fill:#FFFFFF;}
</style>
<g>
	<g>
		<path class="st0" d="M247.7,650.3h-56.8c-9.2-30.7-37.5-53.3-71.2-53.3s-61.9,22.6-71.2,53.3h-270.1c-11.8,0-21.3,9.6-21.3,21.3
			s9.6,21.3,21.3,21.3H48.5c9.2,30.7,37.5,53.3,71.2,53.3s61.9-22.6,71.2-53.3h56.8c11.8,0,21.3-9.6,21.3-21.3
			S259.5,650.3,247.7,650.3z M119.7,703.7c-17.6,0-32-14.4-32-32s14.4-32,32-32s32,14.4,32,32S137.3,703.7,119.7,703.7z"/>
	</g>
</g>
<g>
	<g>
		<path class="st0" d="M247.7,309h-56.8c-9.3-30.7-37.5-53.3-71.2-53.3S57.7,278.3,48.5,309h-270.1c-11.8,0-21.3,9.6-21.3,21.3
			s9.6,21.3,21.3,21.3H48.5C57.7,382.4,86,405,119.7,405s61.9-22.6,71.2-53.3h56.8c11.8,0,21.3-9.6,21.3-21.3S259.5,309,247.7,309z
			 M119.7,362.3c-17.6,0-32-14.4-32-32s14.4-32,32-32s32,14.4,32,32S137.3,362.3,119.7,362.3z"/>
	</g>
</g>
<g>
	<g>
		<path class="st0" d="M247.7,479.7H-22.5c-9.3-30.7-37.5-53.3-71.2-53.3s-61.9,22.6-71.2,53.3h-56.8c-11.8,0-21.3,9.6-21.3,21.3
			s9.6,21.3,21.3,21.3h56.8c9.3,30.7,37.5,53.3,71.2,53.3s61.9-22.6,71.2-53.3h270.1c11.8,0,21.3-9.6,21.3-21.3
			C269,489.2,259.5,479.7,247.7,479.7z M-93.7,533c-17.6,0-32-14.4-32-32s14.4-32,32-32s32,14.4,32,32S-76,533-93.7,533z"/>
	</g>
</g>
</svg>
