
<svg>
	<style type="text/css">
		.st0{fill:#6dc9f7;stroke:#3A2C60;stroke-width:1;stroke-miterlimit:1;}
		.st1{fill:#D4FBFF;}
		.st2{fill:#3A2C60;}
	</style>
	<g id="right_lung">
		<path id="stroke_1_" class="st0" d="M45.6,493.2c1.4-18.7,4.4-37.3,10-54.9c9.3-29.6,39.3-51.6,69.3-34.4c25.7,14.8,60,74,60,74
			s32.5,54,48,119.5s5,102-30.5,110.5c-35.5,8.5-78.5-12.5-94-22c-18.1-11.1-38.8-26-48.9-45c-13-24.4-12.5-53.8-13.9-80.7
			C44.4,538.4,43.9,515.7,45.6,493.2z"/>
	</g>
	<g id="left_lung">
		<path id="stroke" class="st0" d="M-27.2,493.2c-1.4-18.7-4.4-37.3-10-54.9c-9.3-29.6-39.3-51.6-69.3-34.4c-25.8,14.8-60,74-60,74
			s-32.5,54-48,119.5s-5,102,30.5,110.5c35.5,8.5,78.5-12.5,94-22c18.1-11.1,38.8-26,48.9-45c13-24.4,12.5-53.8,13.9-80.7
			C-26,538.4-25.5,515.7-27.2,493.2z"/>
	</g>
	<g id="bronchi">
		<path id="fill" class="st1" d="M165.4,561.8c-14.7,4.2-32,2-32,2s-11.9-20.2-37.9-40.9c-13.2-10.4-28.1-18.8-41.3-25.2
			c-13.4-6.5-21.9-20.2-21.9-35.2V297.4c0,0-6.4-8-20.9-8s-20.9,8-20.9,8v165.9c0,14.9-8.4,28.5-21.8,35.1
			c-12.8,6.3-27.1,14.5-39.9,24.6c-26,20.6-37.9,40.9-37.9,40.9s-17.3,2.3-32-2c-16.6-4.8-30.8-16.1-30.8-14.6
			c0,1.4,11.6,16.6,26.5,24.3c14.8,7.7,32.8,7.7,32.8,7.7s-13.6,77.6-7.1,80.6c3.1,1.4,14.1-69.5,45-105.1c30.5-35,76.8-42.7,86.9-44
			c10.1,1.3,56.4,8.9,86.9,44c31,35.6,41.9,106.5,45,105.1c6.5-3-7.1-80.6-7.1-80.6s18,0,32.8-7.7s26.5-22.9,26.5-24.3
			C196.2,545.8,182,557.1,165.4,561.8L165.4,561.8z"/>
		<path id="trachea_x2B_bronchi" class="st2" d="M-5.5,347c2-1.8,7.3-5.6,16.9-5.6s15,3.9,16.9,5.6v14.4c-3.9-2.1-9.4-4.1-16.9-4.1
			s-13,1.9-16.9,4.1V347z M28.3,337.4c-3.9-2.1-9.4-4.1-16.9-4.1s-13,1.9-16.9,4.1V323c2-1.8,7.3-5.6,16.9-5.6s15,3.9,16.9,5.6V337.4
			z M-5.5,371c2-1.8,7.3-5.6,16.9-5.6s15,3.9,16.9,5.6v14.4c-3.9-2.1-9.4-4.1-16.9-4.1s-13,1.9-16.9,4.1V371z M11.4,293.4
			c9.6,0,14.9,3.8,16.9,5.6v14.4c-3.9-2.1-9.4-4.1-16.9-4.1s-13,1.9-16.9,4.1V299C-3.5,297.2,1.9,293.4,11.4,293.4z M-32.1,489.5
			M53.2,526.6c12.4,5.5,25.7,13.5,37.3,24.9c0,14.5-3.2,49.3-17.7,59.9c-1.8,1.3-2.2,3.8-0.9,5.6c0.8,1.1,2,1.6,3.2,1.6
			c0.8,0,1.6-0.3,2.4-0.8c5.1-3.7,8.9-9.4,11.8-15.9c2.8,8.1,7.5,17.8,14.6,22.6c0.7,0.5,1.5,0.7,2.2,0.7c1.3,0,2.5-0.6,3.3-1.8
			c1.2-1.8,0.8-4.3-1.1-5.6c-8.1-5.5-13-22.3-14.5-29.3c2.7-10.4,3.8-21.1,4.3-28.6c13.7,17,23.2,41,29.7,61.5
			c-0.8,3.6-4.5,18.5-17.1,27.5c-1.8,1.3-2.2,3.8-0.9,5.6c0.8,1.1,2,1.7,3.3,1.7c0.8,0,1.6-0.2,2.3-0.8c8.4-6,13.5-14,16.4-20.7
			c1.2,4.3,2.3,8.3,3.3,11.8c3.7,13.4,4.4,15.6,6.9,16.8c1.1,0.5,2.5,0.5,3.6,0c2.2-1,6.6-3,1.8-41.6c8.1,4.8,21.9,11,39.8,11.3
			c1.2,3.6,3.1,11,1.4,18.2c-0.5,2.2,0.8,4.3,3,4.8c0.3,0.1,0.6,0.1,0.9,0.1c1.8,0,3.5-1.2,3.9-3.1c1.8-7.8,0.4-15.4-0.9-20.3
			c5-0.4,10.1-1.3,15.6-2.7c2.1-0.6,3.4-2.8,2.8-4.9c-0.6-2.1-2.8-3.4-4.9-2.8c-21.5,5.8-39.2,1.2-50.6-3.9l5.3-6.7
			c1.4-1.7,1.1-4.3-0.7-5.6c-1.7-1.4-4.3-1.1-5.6,0.7l-6.2,7.9c-2.3-1.4-4.1-2.6-5.2-3.4c-1.1-8.1-2.6-17.4-4.5-28.3
			c6.2-0.5,17.6-2.1,28.1-7.1c4.3,2.1,16.4,8.6,16.4,17.3c0,2.2,1.8,4,4,4s4-1.8,4-4c0-10.5-9.5-18-16.3-22c11.7-8,22.3-20.1,22.3-24
			c0-1.4-0.8-2.9-2.1-3.6c-2.3-1.3-3.9-0.4-8.6,2.4c-5.6,3.3-14.9,8.9-25.2,11.9c-11,3.2-23.8,2.5-28.5,2c-1.8-2.8-5.9-8.8-12.5-16.3
			c4.2-3.1,10.8-8.9,16.4-17.3l20.8,1.7c0.1,0,0.2,0,0.3,0c2.1,0,3.8-1.6,4-3.7c0.2-2.2-1.4-4.1-3.6-4.3l-17.1-1.4
			c3.2-6.8,5.5-14.8,5.5-24.1c0-2.2-1.8-4-4-4s-4,1.8-4,4c0,23.3-17,38.1-23.7,43.1c-5.4-5.6-11.9-11.8-19.8-18
			c-3.8-3-7.9-6-12.3-8.9c8.7-5.1,35.5-22.9,35.5-47.7c0-2.2-1.8-4-4-4s-4,1.8-4,4c0,8.4-4.1,16-9.4,22.4c-3.6-2.6-12.8-10-17.1-20.8
			l13.6-9.2c1.8-1.2,2.3-3.7,1.1-5.6c-1.2-1.8-3.7-2.3-5.6-1.1l-11.1,7.8c-0.4-3.2-0.3-6.5,0.5-10.1c0.5-2.2-0.9-4.3-3-4.8
			s-4.3,0.9-4.8,3c-5.4,24.6,13.5,41.3,21,46.8c-9,8.5-18.7,13.7-18.9,13.8c-0.4,0.2-0.7,0.5-1,0.8c-6.9-4.2-14.3-8.2-22.3-12.1
			c-0.5-0.2-0.9-0.5-1.3-0.8c0,0-5.5-2.9-7.6-5.5c-6.7-6.5-10.8-15.6-10.8-25.3V297.4c0-0.9-0.3-1.8-0.9-2.5c-0.3-0.4-7.8-9.5-24-9.5
			s-23.7,9.1-24,9.5c-0.6,0.7-0.9,1.6-0.9,2.5v165.9c0,9.6-4,18.7-10.7,25.2l-7.7,5.5c-0.4,0.2-0.8,0.5-1.2,0.7
			c-7.4,3.7-14.4,7.5-20.9,11.4c-0.3-0.3-0.6-0.6-1.1-0.9c-0.2-0.1-9.9-5.3-18.9-13.8c7.4-5.5,26.4-22.2,21-46.8
			c-0.5-2.2-2.6-3.5-4.8-3c-2.2,0.5-3.5,2.6-3,4.8c0.8,3.6,0.9,6.9,0.5,10.1l-11.2-7.6c-1.8-1.2-4.3-0.8-5.6,1.1
			c-1.2,1.8-0.8,4.3,1.1,5.6l13.6,9.3c-4.3,10.9-13.5,18.2-17.1,20.8c-5.3-6.4-9.4-14-9.4-22.4c0-2.2-1.8-4-4-4s-4,1.8-4,4
			c0,24.8,26.9,42.6,35.5,47.7c-4.3,2.9-8.5,5.8-12.3,8.8c-7.8,6.2-14.4,12.4-19.8,18c-6.6-4.9-23.7-19.8-23.7-43.1c0-2.2-1.8-4-4-4
			s-4,1.8-4,4c0,9.3,2.3,17.3,5.5,24.1l-17.1,1.4c-2.2,0.2-3.8,2.1-3.6,4.3c0.2,2.1,1.9,3.7,4,3.7c0.1,0,0.2,0,0.3,0l20.8-1.7
			c5.6,8.4,12.2,14.1,16.4,17.3c-6.6,7.5-10.7,13.5-12.5,16.3c-4.7,0.4-17.5,1.1-28.5-2c-10.3-3-19.6-8.6-25.2-11.9
			c-4.7-2.8-6.3-3.8-8.6-2.4c-1.3,0.7-2.1,2.2-2.1,3.6c0,3.9,10.6,16,22.3,24c-6.8,4-16.3,11.5-16.3,22c0,2.2,1.8,4,4,4s4-1.8,4-4
			c0-8,10.7-14.7,16.4-17.3c10.5,5,21.9,6.6,28.1,7.1c-1.9,10.9-3.3,20.2-4.5,28.3c-1.1,0.8-2.8,2-5.2,3.4l-6.2-7.9
			c-1.4-1.7-3.9-2-5.6-0.7c-1.7,1.4-2,3.9-0.7,5.6l5.3,6.8c-11.3,5.1-29,9.8-50.6,3.9c-2.1-0.6-4.3,0.7-4.9,2.8
			c-0.6,2.1,0.7,4.3,2.8,4.9c5.4,1.5,10.6,2.3,15.6,2.7c-1.4,4.9-2.7,12.5-0.9,20.3c0.4,1.8,2.1,3.1,3.9,3.1c0.3,0,0.6,0,0.9-0.1
			c2.2-0.5,3.5-2.6,3-4.8c-1.7-7.2,0.2-14.6,1.4-18.2c17.9-0.3,31.8-6.5,39.8-11.3c-4.7,38.5-0.3,40.6,1.8,41.6
			c0.5,0.2,1.1,0.4,1.7,0.4s1.3-0.1,1.8-0.4c2.5-1.2,3.2-3.4,6.9-16.8c1-3.5,2.1-7.5,3.3-11.8c3,6.7,8,14.7,16.4,20.7
			c0.7,0.5,1.5,0.8,2.3,0.8c1.2,0,2.5-0.6,3.3-1.7c1.3-1.8,0.9-4.3-0.9-5.6c-12.6-9.1-16.3-23.9-17.1-27.5
			c6.5-20.5,16-44.4,29.7-61.5c0.5,7.5,1.6,18.2,4.3,28.6c-1.5,7-6.4,23.8-14.5,29.3c-1.8,1.2-2.3,3.7-1.1,5.6c0.8,1.1,2,1.8,3.3,1.8
			c0.8,0,1.6-0.2,2.2-0.7c7.1-4.8,11.7-14.6,14.6-22.6c2.9,6.5,6.8,12.2,11.8,15.9c0.7,0.5,1.5,0.8,2.4,0.8c1.2,0,2.4-0.6,3.2-1.6
			c1.3-1.8,0.9-4.3-0.9-5.6c-14.5-10.6-17.6-45.4-17.7-59.9c11.1-10.9,23.8-18.7,35.8-24.1c0,0,7-3.4,8.2-3.8
			c16-6.3,29.6-8.5,34.6-9.2c4.8,0.6,17.7,2.8,33.1,8.6L53.2,526.6z M-24.5,483.5 M12.2,506.7c-0.2,0-0.3,0-0.5,0
			c-9.4,1.2-57.8,9-89.4,45.3c-20.6,23.7-32.3,61.6-39.1,85.7c1.4-15.4,4.5-37.4,8.1-57.9c0.2-1.2-0.1-2.4-0.9-3.3
			c-0.8-0.9-1.9-1.4-3.1-1.4c-0.2,0-17.2-0.1-30.9-7.2c-3.6-1.8-6.9-4.1-9.9-6.5c3.5,1.6,7.3,3.1,11.3,4.2
			c15.3,4.4,32.9,2.2,33.6,2.1c1.2-0.2,2.3-0.9,2.9-1.9c0.1-0.2,11.9-19.9,36.9-39.8c10.8-8.6,24-16.7,39.1-24.1
			c14.6-7.2,24-22.3,24-38.7v-68.3c2-1.8,7.3-5.6,16.9-5.6s15,3.9,16.9,5.6v67.6c0,16.4,9.5,31.7,24.2,38.8
			c15.7,7.6,29.4,16,40.5,24.8c25.1,19.9,36.8,39.6,36.9,39.8c0.6,1.1,1.7,1.8,2.9,1.9c0.7,0.1,18.3,2.3,33.6-2.1
			c3.9-1.1,7.7-2.6,11.3-4.2c-3,2.4-6.3,4.7-9.9,6.5c-13.7,7.1-30.8,7.2-31,7.2c-1.2,0-2.3,0.5-3.1,1.4c-0.8,0.9-1.1,2.1-0.9,3.3
			c3.6,20.5,6.7,42.5,8.1,57.9c-6.8-24.1-18.5-62-39.1-85.7c-31.6-36.3-80-44.1-89.4-45.3C12.5,506.7,12.3,506.7,12.2,506.7
			L12.2,506.7z"/>
	</g>
</svg>
